<?xml version="1.0" encoding="UTF-8" standalone="no"?><!DOCTYPE svg PUBLIC "-//W3C//DTD SVG 1.1//EN" "http://www.w3.org/Graphics/SVG/1.1/DTD/svg11.dtd"><svg width="100%" height="100%" viewBox="0 0 4269 4269" version="1.1" xmlns="http://www.w3.org/2000/svg" xmlns:xlink="http://www.w3.org/1999/xlink" xml:space="preserve" xmlns:serif="http://www.serif.com/" style="fill-rule:evenodd;clip-rule:evenodd;stroke-linejoin:round;stroke-miterlimit:2;"><rect id="Apple-2" x="0.843" y="0.596" width="4266.67" height="4266.67" style="fill:#fff;fill-opacity:0;"/><g id="Apple-21" serif:id="Apple-2"><path d="M614.769,1902.18l1200.99,960.789c179.882,143.906 434.804,146.288 617.344,5.769l1222.18,-940.834l16.993,13.652c59.776,48.021 94.209,120.817 93.415,197.489c-0.795,76.672 -36.73,148.738 -97.489,195.51l-1235.1,950.779c-182.54,140.519 -437.462,138.137 -617.344,-5.769l-1217.34,-973.869c-59.304,-47.443 -93.827,-119.272 -93.827,-195.217c0,-75.946 34.523,-147.775 93.827,-195.218l16.351,-13.081Z" style="fill:#7000ff;fill-opacity:0.5;"/><path d="M614.813,2381.34l1200.94,960.754c179.882,143.905 434.804,146.288 617.344,5.768l1222.14,-940.799l17.038,13.688c59.776,48.021 94.209,120.817 93.415,197.489c-0.795,76.671 -36.73,148.738 -97.489,195.51l-1235.1,950.779c-182.54,140.519 -437.462,138.137 -617.344,-5.769l-1217.34,-973.869c-59.304,-47.443 -93.827,-119.272 -93.827,-195.218c0,-75.946 34.523,-147.774 93.827,-195.217l16.395,-13.116Z" style="fill:#7000ff;fill-opacity:0.25;"/><path d="M2434.65,468.068c-182.609,-146.7 -442.584,-146.966 -625.492,-0.639c-345.804,276.643 -895.367,716.293 -1210.74,968.595c-59.304,47.443 -93.827,119.271 -93.827,195.217c0,75.946 34.523,147.774 93.827,195.217c317.388,253.911 871.961,697.569 1217.34,973.87c179.882,143.905 434.804,146.288 617.344,5.768c349.879,-269.336 911.484,-701.658 1235.1,-950.779c60.759,-46.771 96.694,-118.838 97.489,-195.51c0.794,-76.672 -33.639,-149.468 -93.415,-197.489c-322.484,-259.07 -886.16,-711.902 -1237.62,-994.25Z" style="fill:#7000ff;"/><g><g><path d="M2175.49,860.28c-13.021,24.625 -10.119,60.262 0.465,85.943c3.432,8.322 6.863,16.645 10.295,24.967c121.535,96.266 243.07,192.532 364.605,288.798c121.716,96.409 243.431,192.817 365.147,289.226c11.119,2.9 22.237,5.8 33.355,8.7c36.569,9.54 75.463,11.274 111.597,-1.04c16.371,-5.579 33.823,-14.392 45.902,-31.659c3.93,-5.618 7.574,-11.731 10.413,-18.584c9.506,-22.951 4.946,-48.4 -2.74,-71.365c-3.574,-10.674 -6.686,-21.692 -11.903,-31.041c-9.802,-17.564 -24.138,-30.121 -37.209,-42.04c-21.676,-19.767 -44.047,-37.991 -66.386,-56.154c-83.067,-67.538 -166.943,-133.04 -250.55,-199.184c-74.136,-58.652 -148.156,-117.621 -222.556,-175.581c-26.658,-20.767 -53.35,-41.488 -80.418,-61.135c-20.133,-14.613 -40.619,-29.381 -62.196,-39.079c-16.261,-7.309 -33.077,-10.21 -49.847,-13.804c-9.909,-2.123 -19.861,-3.81 -29.839,-4.944c-8.106,-0.921 -16.229,-1.478 -24.352,-1.576c-6.509,-0.078 -13.018,0.138 -19.508,0.721c-29.912,2.684 -65.272,12.893 -84.275,48.831Z" style="fill:#fff;fill-rule:nonzero;"/><path d="M2120.17,1136.55c-72.646,127.425 -152.864,247.731 -241.531,357.21c-84.159,103.914 -175.699,197.696 -272.722,281.237c-19.778,17.028 -39.556,34.056 -59.334,51.084c-12.827,-1.775 -25.655,-3.551 -38.482,-5.327c-47.001,-6.506 -95.467,-2.901 -141.253,10.984c-24.185,7.335 -49.059,17.571 -69.583,35.835c-3.017,2.685 -6.039,5.365 -8.994,8.161c-1.919,1.815 -3.823,3.675 -5.597,5.721c-1.508,1.737 -2.972,3.639 -3.995,5.905c-3.269,7.236 0.624,16.415 2.869,23.237c2.464,7.489 4.929,14.977 7.393,22.466c64.615,51.512 129.23,103.025 193.845,154.537c64.666,51.554 129.332,103.107 193.998,154.66c9.506,2.048 19.013,4.096 28.519,6.143c9.126,1.966 18.998,4.89 28.254,2.914c9.575,-2.043 18.404,-9.001 26.798,-14.66c44.396,-29.945 76.274,-99.035 62.794,-164.53c-2.001,-9.714 -4.001,-19.429 -6.002,-29.144c12.399,-9.615 24.798,-19.231 37.197,-28.846c10.33,-8.011 20.822,-15.711 31.502,-22.943c5.732,-3.882 11.638,-8.3 17.862,-10.822c4.057,-1.641 8.115,-3.282 12.172,-4.922c24.741,18.962 49.482,37.924 74.222,56.886c36.722,28.144 73.968,57.276 114.237,76.248c24.014,11.314 48.972,17.99 74.113,23.222c47.355,9.856 94.891,11.481 141.317,-4.021c25.259,-8.431 47.665,-23.625 70.111,-40.258c20.114,-14.905 39.971,-30.371 59.835,-45.806c25.213,-19.59 50.549,-39.101 74.857,-60.492c17.132,-15.075 36.868,-32.075 46.472,-56.801c3.479,-8.958 5.351,-18.746 6.613,-28.619c8.053,-62.953 -28.076,-119.672 -64.074,-156.939c-7.02,-7.268 -14.305,-14.108 -21.784,-20.568c-2.714,-2.344 -5.426,-4.69 -8.132,-7.049c-1.533,-1.336 -3.064,-2.677 -4.591,-4.025c-1.311,-1.157 -2.66,-2.356 -3.963,-3.531c-1.113,-1.003 -2.259,-2.047 -3.362,-3.073c-2.671,-2.486 -5.493,-5.003 -7.765,-8.106c-0.695,-0.95 -1.885,-2.588 -1.369,-4.017c0.613,-1.695 2.917,-2.238 4.121,-2.663c25.784,-9.093 51.328,-19.412 76.938,-29.24c48.208,-18.487 96.701,-35.93 145.325,-52.618c18.431,-6.323 36.85,-12.696 55.239,-19.209c5.737,-2.032 11.474,-4.07 17.194,-6.177c2.054,-0.757 4.959,-1.221 6.854,-2.692c0.057,-0.044 -0.72,-0.807 -0.752,-0.837c-0.828,-0.767 -1.673,-1.504 -2.521,-2.234c-1.987,-1.712 -3.99,-3.392 -5.999,-5.061c-7.913,-6.575 -15.869,-13.062 -23.833,-19.534c-23.496,-19.093 -47.07,-38.026 -70.658,-56.929c-67.64,-54.208 -135.425,-108.115 -203.274,-161.886c-78.999,-62.608 -157.923,-125.399 -237.371,-187.052c-18.929,-14.689 -37.843,-29.46 -57.114,-43.39c-4.402,-3.182 -8.821,-6.377 -13.392,-9.138c-0.676,-0.409 -3.369,-2.459 -4.164,-1.668c-3.98,3.961 -6.89,10.542 -9.943,15.628c-6.483,10.8 -12.825,21.744 -19.097,32.749Zm-60.921,745.118c58.231,-34.258 116.278,-69.017 174.776,-102.543c19.763,-11.326 39.561,-22.572 59.545,-33.264c11.072,-5.923 22.351,-12.934 34.128,-16.378c4.701,-1.378 10.857,3.576 14.81,6.235c11.693,7.862 22.793,17.235 34.014,26.144c5.016,3.983 9.967,8.108 14.809,12.437c3.756,3.357 7.446,6.836 11.035,10.484c15.633,15.895 33.953,39.146 29.525,67.212c-0.738,4.686 -1.557,9.371 -3.441,13.529c-5.496,12.124 -16.702,20.321 -25.472,27.893c-18.636,16.09 -37.798,31.213 -56.82,46.548c-23.562,18.993 -47.16,38.094 -71.655,55.105c-19.127,13.284 -39.526,26.195 -61.515,29.403c-17.515,2.556 -35.007,-1.838 -52.052,-7.196c-17.525,-5.507 -32.799,-16.06 -48.297,-27.862c-13.011,-9.907 -25.865,-20.161 -38.725,-30.39c-21.403,-17.024 -42.806,-34.047 -64.21,-51.071c4.155,-1.968 8.309,-3.935 12.464,-5.903c12.602,-5.962 24.89,-13.209 37.081,-20.383Z" style="fill:#fff;fill-rule:nonzero;"/></g></g></g></svg>